HIERARCHY
ROOT Hips
{
	OFFSET 0 0 0
	CHANNELS 6 Xposition Yposition Zposition Yrotation Xrotation Zrotation
	JOINT Spine
	{
		OFFSET -0 8.38078 -2.67137
		CHANNELS 3 Yrotation Xrotation Zrotation
		JOINT Spine1
		{
			OFFSET -0 10.2701 0
			CHANNELS 3 Yrotation Xrotation Zrotation
			JOINT Spine2
			{
				OFFSET -0 10.2701 0
				CHANNELS 3 Yrotation Xrotation Zrotation
				JOINT Spine3
				{
					OFFSET -0 10.2701 0
					CHANNELS 3 Yrotation Xrotation Zrotation
					JOINT Neck
					{
						OFFSET -0 16.9472 3.67137
						CHANNELS 3 Yrotation Xrotation Zrotation
						JOINT Head
						{
							OFFSET -0 10.476 0
							CHANNELS 3 Yrotation Xrotation Zrotation
							End Site
							{
								OFFSET -0 15 0
							}
						}
					}
					JOINT LeftShoulder
					{
						OFFSET 1.74599 4.87741 3.49199
						CHANNELS 3 Yrotation Xrotation Zrotation
						JOINT LeftArm
						{
							OFFSET 19.9293 0 0
							CHANNELS 3 Yrotation Xrotation Zrotation
							JOINT LeftForeArm
							{
								OFFSET 25.2203 0 0
								CHANNELS 3 Yrotation Xrotation Zrotation
								JOINT LeftHand
								{
									OFFSET 22.6882 0 0
									CHANNELS 3 Yrotation Xrotation Zrotation
									End Site
									{
										OFFSET 15 0 0
									}
								}
							}
						}
					}
					JOINT RightShoulder
					{
						OFFSET -1.74599 4.87741 3.49199
						CHANNELS 3 Yrotation Xrotation Zrotation
						JOINT RightArm
						{
							OFFSET -19.9293 0 0
							CHANNELS 3 Yrotation Xrotation Zrotation
							JOINT RightForeArm
							{
								OFFSET -25.2203 0 0
								CHANNELS 3 Yrotation Xrotation Zrotation
								JOINT RightHand
								{
									OFFSET -22.6882 0 0
									CHANNELS 3 Yrotation Xrotation Zrotation
									End Site
									{
										OFFSET -15 0 0
									}
								}
							}
						}
					}
				}
			}
		}
	}
	JOINT LeftUpLeg
	{
		OFFSET 10.476 -3.49199 2
		CHANNELS 3 Yrotation Xrotation Zrotation
		JOINT LeftLeg
		{
			OFFSET -0 -42.329 2.44439
			CHANNELS 3 Yrotation Xrotation Zrotation
			JOINT LeftFoot
			{
				OFFSET -0 -39.8175 -2.44439
				CHANNELS 3 Yrotation Xrotation Zrotation
				JOINT LeftToeBase
				{
					OFFSET -0 -6.74129 15.714
					CHANNELS 3 Yrotation Xrotation Zrotation
					End Site
					{
						OFFSET -0 0 5
					}
				}
			}
		}
	}
	JOINT RightUpLeg
	{
		OFFSET -10.476 -3.49199 2
		CHANNELS 3 Yrotation Xrotation Zrotation
		JOINT RightLeg
		{
			OFFSET -0 -42.329 2.44439
			CHANNELS 3 Yrotation Xrotation Zrotation
			JOINT RightFoot
			{
				OFFSET -0 -39.8175 -2.44439
				CHANNELS 3 Yrotation Xrotation Zrotation
				JOINT RightToeBase
				{
					OFFSET -0 -6.74129 15.714
					CHANNELS 3 Yrotation Xrotation Zrotation
					End Site
					{
						OFFSET -0 0 5
					}
				}
			}
		}
	}
}
MOTION
Frames: 7
Frame Time: 0.00833333
216.990942 94.563892 -418.036523 -2.333923 -0.621766 0.343728 -0.082031 0.172361 -0.594584 -0.026962 0.395099 -0.393612 0.095043 0.525007 -0.163122 0.174579 0.714642 -0.018265 -4.012688 2.033955 -2.312467 -1.339472 9.329716 1.903866 15.891169 16.740492 -1.491658 -56.626739 -3.094547 -57.891303 -10.580231 4.004709 8.037798 5.353163 -8.989832 -1.890469 -10.896491 14.982048 5.340533 48.431437 -0.958783 61.678785 9.269816 1.980225 -9.425995 -6.735283 -15.639430 5.243644 1.149770 10.380468 -0.278529 0.000000 -7.036329 0.000000 11.058027 3.127992 3.443511 0.000000 -10.223536 0.000000 -4.823880 7.741065 -1.667842 0.000000 -2.338990 0.000000 -4.997884 -1.240141 -5.918621 0.000000 -2.008143 0.000000
216.987671 94.565283 -418.053760 -2.312100 -0.630308 0.342421 -0.082753 0.186846 -0.595364 -0.029893 0.403366 -0.400972 0.094126 0.523548 -0.175070 0.169500 0.714203 -0.017939 -4.031511 2.017571 -2.292118 -1.349209 9.321955 1.912613 15.894207 16.734925 -1.484854 -56.626252 -3.087315 -57.884991 -10.582259 4.038237 8.047248 5.351126 -9.050450 -1.868973 -10.912640 14.979325 5.358641 48.444346 -0.957031 61.679314 9.293126 2.017105 -9.434141 -6.696927 -15.613349 5.174239 1.138864 10.377158 -0.274214 0.000000 -7.039161 0.000000 11.044509 3.136171 3.448373 0.000000 -10.225297 0.000000 -4.823812 7.737949 -1.662245 0.000000 -2.331901 0.000000 -5.017798 -1.235573 -5.915914 0.000000 -2.012924 0.000000
216.984399 94.566345 -418.070898 -2.299834 -0.639925 0.345591 -0.061273 0.196125 -0.613271 -0.012804 0.406198 -0.408184 0.068531 0.542286 -0.166890 0.139359 0.715781 -0.007999 -4.040739 1.993255 -2.293675 -1.352378 9.307290 1.930612 15.909002 16.706716 -1.496854 -56.661296 -3.052762 -57.899024 -10.582275 4.051708 8.080639 5.385631 -9.116722 -1.863700 -10.910731 14.974619 5.361108 48.450401 -0.964643 61.669842 9.315087 2.046415 -9.442515 -6.644491 -15.601719 5.130855 1.141397 10.372110 -0.272446 0.000000 -7.039177 0.000000 11.029327 3.155770 3.437474 0.000000 -10.245294 0.000000 -4.816745 7.737016 -1.660278 0.000000 -2.331473 0.000000 -5.037792 -1.222583 -5.931091 0.000000 -2.026399 0.000000
216.986157 94.566711 -418.087891 -2.276111 -0.647955 0.345474 -0.063102 0.186887 -0.605499 -0.015730 0.434912 -0.414717 0.072779 0.555158 -0.185937 0.138963 0.728321 -0.012066 -4.063743 1.944492 -2.255330 -1.367744 9.287801 1.928621 15.902913 16.673838 -1.487725 -56.643564 -3.071594 -57.901110 -10.576711 4.085436 8.084761 5.380209 -9.123312 -1.857304 -10.925119 14.961020 5.388022 48.464034 -0.953950 61.667917 9.346192 2.060913 -9.481060 -6.568898 -15.634841 5.117842 1.137386 10.367483 -0.271238 0.000000 -7.042772 0.000000 11.010659 3.164146 3.433306 0.000000 -10.228194 0.000000 -4.817565 7.736412 -1.658786 0.000000 -2.330832 0.000000 -5.063708 -1.214881 -5.935096 0.000000 -2.028764 0.000000
216.981909 94.566718 -418.103418 -2.270894 -0.655720 0.342381 -0.088712 0.192635 -0.593200 -0.042666 0.420610 -0.424385 0.112335 0.586660 -0.224568 0.169841 0.749617 -0.003383 -4.073784 1.893678 -2.205171 -1.377718 9.290642 1.927636 15.892342 16.631769 -1.467626 -56.665483 -3.072726 -57.907890 -10.565420 4.053380 8.088736 5.352502 -9.061379 -1.833654 -10.933440 14.941050 5.430521 48.408872 -0.973173 61.645137 9.399945 2.092881 -9.447300 -6.559286 -15.577579 4.979308 1.131523 10.366775 -0.266055 0.000000 -7.043824 0.000000 11.009071 3.166271 3.444694 0.000000 -10.225862 0.000000 -4.826723 7.731856 -1.653552 0.000000 -2.321248 0.000000 -5.052675 -1.220833 -5.932332 0.000000 -2.004546 0.000000
216.978027 94.566125 -418.119238 -2.264354 -0.662871 0.339755 -0.108722 0.200241 -0.587712 -0.063182 0.421457 -0.430624 0.130464 0.597262 -0.245966 0.183361 0.756160 0.002895 -4.071494 1.870218 -2.182640 -1.378611 9.283174 1.936978 15.889921 16.611076 -1.458354 -56.664027 -3.064921 -57.921092 -10.567816 4.004003 8.092338 5.310740 -8.979365 -1.802121 -10.928308 14.929923 5.448901 48.434914 -0.975873 61.652447 9.399938 2.047899 -9.484970 -6.439289 -15.571380 4.978483 1.136214 10.363050 -0.258713 0.000000 -7.049033 0.000000 11.001610 3.182323 3.440072 0.000000 -10.227281 0.000000 -4.810515 7.729715 -1.646378 0.000000 -2.321073 0.000000 -5.071825 -1.207876 -5.919949 0.000000 -2.014146 0.000000
216.972241 94.567035 -418.135400 -2.263702 -0.670739 0.339879 -0.129182 0.200820 -0.587752 -0.083685 0.427844 -0.436348 0.155897 0.609575 -0.264305 0.207698 0.776161 0.000686 -4.080916 1.840917 -2.132736 -1.391109 9.254482 1.912031 15.872465 16.603130 -1.444874 -56.676305 -3.064437 -57.917153 -10.573044 3.939674 8.115661 5.294498 -8.932098 -1.793300 -10.936507 14.914712 5.480650 48.547420 -0.903744 61.671265 9.442778 2.043921 -9.579845 -6.373220 -15.675459 5.010000 1.138902 10.361389 -0.255860 0.000000 -7.050081 0.000000 11.001281 3.192123 3.453147 0.000000 -10.240444 0.000000 -4.807936 7.725738 -1.641654 0.000000 -2.317219 0.000000 -5.076671 -1.205903 -5.924156 0.000000 -2.016471 0.000000
